<?xml version="1.0" encoding="UTF-8"?>
<svg width="200px" height="200px" viewBox="0 0 200 200" version="1.1" xmlns="http://www.w3.org/2000/svg" xmlns:xlink="http://www.w3.org/1999/xlink">
    <!-- Generator: Sketch 57.1 (83088) - https://sketch.com -->
    <title>project-sel</title>
    <desc>Created with Sketch.</desc>
    <g id="project-sel" stroke="none" stroke-width="1" fill="none" fill-rule="evenodd">
        <rect id="矩形" fill-opacity="0" fill="#FFFFFF" x="0" y="0" width="200" height="200"></rect>
        <g transform="translate(22.000000, 22.000000)" fill="#02CCF6" fill-rule="nonzero" id="形状">
            <path d="M32.8125,125 L48.4375,125 C49.296875,125 50,124.296875 50,123.4375 L50,32.8125 C50,31.953125 49.296875,31.25 48.4375,31.25 L32.8125,31.25 C31.953125,31.25 31.25,31.953125 31.25,32.8125 L31.25,123.4375 C31.25,124.296875 31.953125,125 32.8125,125 Z M70.3125,70.3125 L85.9375,70.3125 C86.796875,70.3125 87.5,69.609375 87.5,68.75 L87.5,32.8125 C87.5,31.953125 86.796875,31.25 85.9375,31.25 L70.3125,31.25 C69.453125,31.25 68.75,31.953125 68.75,32.8125 L68.75,68.75 C68.75,69.609375 69.453125,70.3125 70.3125,70.3125 Z M107.8125,84.375 L123.4375,84.375 C124.296875,84.375 125,83.671875 125,82.8125 L125,32.8125 C125,31.953125 124.296875,31.25 123.4375,31.25 L107.8125,31.25 C106.953125,31.25 106.25,31.953125 106.25,32.8125 L106.25,82.8125 C106.25,83.671875 106.953125,84.375 107.8125,84.375 Z M150,0 L6.25,0 C2.79296875,0 0,2.79296875 0,6.25 L0,150 C0,153.457031 2.79296875,156.25 6.25,156.25 L150,156.25 C153.457031,156.25 156.25,153.457031 156.25,150 L156.25,6.25 C156.25,2.79296875 153.457031,0 150,0 Z M142.1875,142.1875 L14.0625,142.1875 L14.0625,14.0625 L142.1875,14.0625 L142.1875,142.1875 Z"></path>
        </g>
    </g>
</svg>