<?xml version="1.0" encoding="UTF-8"?>
<svg width="200px" height="200px" viewBox="0 0 200 200" version="1.1" xmlns="http://www.w3.org/2000/svg" xmlns:xlink="http://www.w3.org/1999/xlink">
    <!-- Generator: Sketch 57.1 (83088) - https://sketch.com -->
    <title>search-sel</title>
    <desc>Created with Sketch.</desc>
    <g id="search-sel" stroke="none" stroke-width="1" fill="none" fill-rule="evenodd">
        <rect id="矩形" fill-opacity="0" fill="#FFFFFF" x="0" y="0" width="200" height="200"></rect>
        <g id="filesearch-sel" transform="translate(27.000000, 15.000000)" fill="#02CCF6" fill-rule="nonzero">
            <path d="M107.8125,46.09375 L107.8125,36.71875 C107.8125,35.859375 107.109375,35.15625 106.25,35.15625 L31.25,35.15625 C30.390625,35.15625 29.6875,35.859375 29.6875,36.71875 L29.6875,46.09375 C29.6875,46.953125 30.390625,47.65625 31.25,47.65625 L106.25,47.65625 C107.109375,47.65625 107.8125,46.953125 107.8125,46.09375 Z M31.25,63.28125 C30.390625,63.28125 29.6875,63.984375 29.6875,64.84375 L29.6875,74.21875 C29.6875,75.078125 30.390625,75.78125 31.25,75.78125 L67.1875,75.78125 C68.046875,75.78125 68.75,75.078125 68.75,74.21875 L68.75,64.84375 C68.75,63.984375 68.046875,63.28125 67.1875,63.28125 L31.25,63.28125 Z M59.375,151.5625 L14.0625,151.5625 L14.0625,14.0625 L123.4375,14.0625 L123.4375,81.25 C123.4375,82.109375 124.140625,82.8125 125,82.8125 L135.9375,82.8125 C136.796875,82.8125 137.5,82.109375 137.5,81.25 L137.5,6.25 C137.5,2.79296875 134.707031,0 131.25,0 L6.25,0 C2.79296875,0 0,2.79296875 0,6.25 L0,159.375 C0,162.832031 2.79296875,165.625 6.25,165.625 L59.375,165.625 C60.234375,165.625 60.9375,164.921875 60.9375,164.0625 L60.9375,153.125 C60.9375,152.265625 60.234375,151.5625 59.375,151.5625 Z M146.425781,161.621094 L128.203125,143.398438 C132.558594,137.636719 135.15625,130.449219 135.15625,122.65625 C135.15625,103.671875 119.765625,88.28125 100.78125,88.28125 C81.796875,88.28125 66.40625,103.671875 66.40625,122.65625 C66.40625,141.640625 81.796875,157.03125 100.78125,157.03125 C107.773438,157.03125 114.257812,154.941406 119.6875,151.367188 L138.183594,169.863281 C138.496094,170.175781 138.886719,170.3125 139.277344,170.3125 C139.667969,170.3125 140.078125,170.15625 140.371094,169.863281 L146.425781,163.808594 C147.03125,163.203125 147.03125,162.226562 146.425781,161.621094 Z M100.78125,144.53125 C88.6914062,144.53125 78.90625,134.746094 78.90625,122.65625 C78.90625,110.566406 88.6914062,100.78125 100.78125,100.78125 C112.871094,100.78125 122.65625,110.566406 122.65625,122.65625 C122.65625,134.746094 112.871094,144.53125 100.78125,144.53125 Z" id="形状"></path>
        </g>
    </g>
</svg>