<?xml version="1.0" encoding="UTF-8"?>
<svg width="200px" height="200px" viewBox="0 0 200 200" version="1.1" xmlns="http://www.w3.org/2000/svg" xmlns:xlink="http://www.w3.org/1999/xlink">
    <!-- Generator: Sketch 57.1 (83088) - https://sketch.com -->
    <title>dashboard</title>
    <desc>Created with Sketch.</desc>
    <g id="dashboard" stroke="none" stroke-width="1" fill="none" fill-rule="evenodd">
        <rect id="矩形" fill-opacity="0" fill="#FFFFFF" x="0" y="0" width="200" height="200"></rect>
        <g transform="translate(13.000000, 22.000000)" fill="#ABC6D8" fill-rule="nonzero" id="形状">
            <path d="M168.125,53.4375 C163.710938,43.0078125 157.402344,33.6523438 149.375,25.625 C141.347656,17.5976563 131.992187,11.2890625 121.5625,6.875 C110.761719,2.3046875 99.3164062,0 87.5,0 C75.6835938,0 64.2382812,2.3046875 53.4375,6.875 C43.0078125,11.2890625 33.6523438,17.5976562 25.625,25.625 C17.5976563,33.6523438 11.2890625,43.0078125 6.875,53.4375 C2.3046875,64.2382812 0,75.6835938 0,87.5 C0,113.417969 11.3867187,137.832031 31.2304688,154.511719 L31.5625,154.785156 C32.6953125,155.722656 34.1210938,156.25 35.5859375,156.25 L139.433594,156.25 C140.898438,156.25 142.324219,155.722656 143.457031,154.785156 L143.789063,154.511719 C163.613281,137.832031 175,113.417969 175,87.5 C175,75.6835938 172.675781,64.2382812 168.125,53.4375 Z M136.210938,141.40625 L38.7890625,141.40625 C23.5351562,127.636719 14.84375,108.125 14.84375,87.5 C14.84375,68.0859375 22.4023438,49.84375 36.1328125,36.1328125 C49.8632812,22.4023437 68.1054688,14.84375 87.5,14.84375 C106.914062,14.84375 125.15625,22.4023437 138.867188,36.1328125 C152.597656,49.8632813 160.15625,68.1054688 160.15625,87.5 C160.15625,108.125 151.464844,127.636719 136.210938,141.40625 Z M109.277344,60.4492188 C108.671875,59.84375 107.675781,59.84375 107.070312,60.4492188 L90.5664063,76.953125 C86.9140625,75.9765625 82.8710938,76.9140625 80,79.7851563 C75.7226563,84.0625 75.7226563,90.9765625 80,95.2539063 C84.2773438,99.53125 91.1914062,99.53125 95.46875,95.2539063 C98.3398438,92.3828125 99.2773438,88.3398438 98.3007813,84.6875 L114.804688,68.1835938 C115.410156,67.578125 115.410156,66.5820313 114.804688,65.9765625 L109.277344,60.4492188 L109.277344,60.4492188 Z M83.203125,40.625 L91.796875,40.625 C92.65625,40.625 93.359375,39.921875 93.359375,39.0625 L93.359375,23.4375 C93.359375,22.578125 92.65625,21.875 91.796875,21.875 L83.203125,21.875 C82.34375,21.875 81.640625,22.578125 81.640625,23.4375 L81.640625,39.0625 C81.640625,39.921875 82.34375,40.625 83.203125,40.625 Z M133.984375,83.203125 L133.984375,91.796875 C133.984375,92.65625 134.6875,93.359375 135.546875,93.359375 L151.171875,93.359375 C152.03125,93.359375 152.734375,92.65625 152.734375,91.796875 L152.734375,83.203125 C152.734375,82.34375 152.03125,81.640625 151.171875,81.640625 L135.546875,81.640625 C134.6875,81.640625 133.984375,82.34375 133.984375,83.203125 Z M136.464844,44.6875 L130.390625,38.6132812 C129.785156,38.0078125 128.789062,38.0078125 128.183594,38.6132812 L117.128906,49.6679688 C116.523438,50.2734375 116.523438,51.2695312 117.128906,51.875 L123.203125,57.9492188 C123.808594,58.5546875 124.804688,58.5546875 125.410156,57.9492188 L136.464844,46.8945312 C137.070312,46.2890625 137.070312,45.2929688 136.464844,44.6875 Z M46.8945312,38.6132812 C46.2890625,38.0078125 45.2929688,38.0078125 44.6875,38.6132812 L38.6132812,44.6875 C38.0078125,45.2929688 38.0078125,46.2890625 38.6132812,46.8945312 L49.6679688,57.9492188 C50.2734375,58.5546875 51.2695312,58.5546875 51.875,57.9492188 L57.9492188,51.875 C58.5546875,51.2695312 58.5546875,50.2734375 57.9492188,49.6679688 L46.8945312,38.6132812 Z M38.671875,81.640625 L23.046875,81.640625 C22.1875,81.640625 21.484375,82.34375 21.484375,83.203125 L21.484375,91.796875 C21.484375,92.65625 22.1875,93.359375 23.046875,93.359375 L38.671875,93.359375 C39.53125,93.359375 40.234375,92.65625 40.234375,91.796875 L40.234375,83.203125 C40.234375,82.34375 39.53125,81.640625 38.671875,81.640625 Z"></path>
        </g>
    </g>
</svg>